@startuml
'skinparam monochrome true
skinparam packageStyle rectangle
skinparam shadowing false
skinparam linetype polyline
skinparam linetype orto

skinparam classAttributeIconSize 0

left to right direction


class RegisterJobController {
    +registerJob(jobName)
}


class JobRepository {
    +addJob(jobName) : boolean
    +validate(job) : boolean
    +add(job) : boolean
}

class Job {
    -name
}

class Repository{
    +getInstanceOf() : Repository
    +getJobRepository() : JobRepository

}






RegisterJobController ..> JobRepository
RegisterJobController ..> Job
RegisterJobController .> Repository
Repository --> Repository

JobRepository --> Job
Repository <|-- JobRepository

@enduml

@enduml